<?xml version="1.0" encoding="UTF-8"?>
<svg version="1.1" xmlns="http://www.w3.org/2000/svg" width="249" height="183">
<path d="M0 0 C82.17 0 164.34 0 249 0 C249 60.39 249 120.78 249 183 C166.83 183 84.66 183 0 183 C0 122.61 0 62.22 0 0 Z " fill="#FEFEFE" transform="translate(0,0)"/>
<path d="M0 0 C1.60198242 -0.00580078 1.60198242 -0.00580078 3.23632812 -0.01171875 C12.4500949 0.12125203 20.27255131 1.94678583 28.75 5.4375 C28.75 6.0975 28.75 6.7575 28.75 7.4375 C29.69875 7.72625 30.6475 8.015 31.625 8.3125 C34.75 9.4375 34.75 9.4375 36.75 11.4375 C38.81874034 12.0800235 38.81874034 12.0800235 40.75 12.4375 C40.75 13.4275 40.75 14.4175 40.75 15.4375 C41.6471875 15.623125 41.6471875 15.623125 42.5625 15.8125 C44.75 16.4375 44.75 16.4375 47.75 18.4375 C47.75 19.7575 47.75 21.0775 47.75 22.4375 C48.41 22.4375 49.07 22.4375 49.75 22.4375 C52.75 25.89903846 52.75 25.89903846 52.75 28.4375 C51.66460937 28.54707031 50.57921875 28.65664063 49.4609375 28.76953125 C48.01555848 28.92908608 46.57024949 29.08927611 45.125 29.25 C44.41214844 29.32025391 43.69929688 29.39050781 42.96484375 29.46289062 C38.33086137 29.99431062 34.85852159 31.07218394 30.75 33.4375 C31.34167969 33.23253906 31.93335938 33.02757812 32.54296875 32.81640625 C33.33316406 32.54699219 34.12335938 32.27757813 34.9375 32 C35.71480469 31.73316406 36.49210937 31.46632813 37.29296875 31.19140625 C42.59641999 29.56411517 47.53589574 29.31079459 53.0625 29.375 C53.80306641 29.37951172 54.54363281 29.38402344 55.30664062 29.38867188 C57.12112899 29.40037825 58.93557534 29.41831102 60.75 29.4375 C60.75 30.0975 60.75 30.7575 60.75 31.4375 C61.72839844 31.60185547 61.72839844 31.60185547 62.7265625 31.76953125 C67.8697623 32.70258962 72.16899779 33.78534083 76.75 36.4375 C76.75 37.4275 76.75 38.4175 76.75 39.4375 C77.36875 39.664375 77.9875 39.89125 78.625 40.125 C80.75 41.4375 80.75 41.4375 81.75 44 C82.08 44.804375 82.41 45.60875 82.75 46.4375 C83.36746094 46.53804687 83.98492187 46.63859375 84.62109375 46.7421875 C86.75 47.4375 86.75 47.4375 88.34765625 49.81640625 C93.47011529 60.94921724 98.47982168 75.38657483 94.796875 87.59765625 C94.36890625 88.55542969 93.9409375 89.51320313 93.5 90.5 C93.04753906 91.51707031 92.59507812 92.53414063 92.12890625 93.58203125 C90.48658243 96.98299077 88.7248782 100.21917997 86.75 103.4375 C86.09 103.4375 85.43 103.4375 84.75 103.4375 C84.49476563 104.035625 84.23953125 104.63375 83.9765625 105.25 C80.68945987 111.11234864 72.90863746 115.13529641 66.75 117.4375 C62.92170419 118.43742801 59.1030915 119.36608563 55.23828125 120.21484375 C51.24923122 121.61302142 49.56713003 123.34912604 46.75 126.4375 C29.2059232 138.69565348 0.73566647 136.23681414 -19.20288086 132.78442383 C-26.97451818 131.26062439 -33.41255056 128.91010885 -39.25 123.4375 C-40.67880056 120.57989888 -40.32723474 117.99912546 -40.375 114.8125 C-40.78310469 108.54426699 -41.8245941 105.71155979 -46.28125 101.41015625 C-58.27711342 89.39049151 -61.60672975 73.44213296 -61.70532227 57.18652344 C-61.48093018 43.5979639 -56.95822697 31.89523532 -48.25 21.4375 C-47.43982422 20.43976562 -47.43982422 20.43976562 -46.61328125 19.421875 C-45.19561164 17.72209985 -43.7416904 16.07228861 -42.25 14.4375 C-41.1671875 13.2309375 -41.1671875 13.2309375 -40.0625 12 C-38.25 10.4375 -38.25 10.4375 -35.25 10.4375 C-35.25 9.7775 -35.25 9.1175 -35.25 8.4375 C-32.61 7.7775 -29.97 7.1175 -27.25 6.4375 C-27.25 5.7775 -27.25 5.1175 -27.25 4.4375 C-26.43015625 4.31632812 -25.6103125 4.19515625 -24.765625 4.0703125 C-23.68796875 3.90273438 -22.6103125 3.73515625 -21.5 3.5625 C-19.89898437 3.31886719 -19.89898437 3.31886719 -18.265625 3.0703125 C-15.35395244 2.60974325 -15.35395244 2.60974325 -13.37890625 1.42114258 C-9.21991079 -0.50048503 -4.50830989 0.01109738 0 0 Z " fill="#D6D5DA" transform="translate(107.25,27.5625)"/>
<path d="M0 0 C2.06547922 3.09821883 3.56243611 6.18449352 5.125 9.5625 C5.66382813 10.71878906 6.20265625 11.87507813 6.7578125 13.06640625 C8 16 8 16 8 18 C8.78375 17.938125 9.5675 17.87625 10.375 17.8125 C11.674375 17.9053125 11.674375 17.9053125 13 18 C13.66 18.99 14.32 19.98 15 21 C15.825 21.495 16.65 21.99 17.5 22.5 C20 24 20 24 22 27 C23.94832935 28.00168531 23.94832935 28.00168531 26.125 28.6875 C26.84945312 28.93886719 27.57390625 29.19023437 28.3203125 29.44921875 C28.87460938 29.63097656 29.42890625 29.81273437 30 30 C30 30.66 30 31.32 30 32 C42.92027378 34.69740308 55.53059525 36.38921059 68.75 36.375 C69.88985352 36.37628906 71.02970703 36.37757813 72.20410156 36.37890625 C79.64319904 36.28328244 86.69857139 35.37663506 94 34 C96.33073339 33.6416547 98.66345137 33.31862027 101 33 C96.08141044 37.91858956 86.69811411 38.36810244 80 39 C89.8745104 39.57833358 99.06436869 38.21981913 107 32 C107.66 32.33 108.32 32.66 109 33 C101.68803516 41.48187921 88.6784274 42.6652717 78.125 43.6875 C66.36350942 44.45489419 54.72750235 44.07839102 43 43 C42.67 43 42.34 43 42 43 C49.45699496 45.08236173 56.62505693 45.27650977 64.31933594 45.20581055 C66.36406052 45.18759744 68.40832774 45.18530134 70.453125 45.18554688 C78.01548682 45.16460706 85.48368978 44.85875277 93 44 C84.29957944 49.80028037 69.28989368 48.52661506 59 49 C62.91651903 49.08859875 66.83277374 49.14091917 70.75 49.1875 C71.84183594 49.21263672 72.93367188 49.23777344 74.05859375 49.26367188 C80.93857174 49.32473677 86.8587383 48.55734237 93.45019531 46.55200195 C96.0862804 45.98132133 97.4888562 46.1094371 100 47 C93.85901102 49.56113676 88.0775083 50.81184466 81.5 51.6875 C76.7975 52.3371875 76.7975 52.3371875 72 53 C79.92 52.67 87.84 52.34 96 52 C82.98505133 60.67663245 58.04185465 58.13073476 43.2578125 55.6953125 C35.59659128 54.06018375 28.15762448 51.9926685 22 47 C21.67 46.34 21.34 45.68 21 45 C23.31 45.66 25.62 46.32 28 47 C27.071875 46.401875 26.14375 45.80375 25.1875 45.1875 C19.27084092 41.12704769 19.27084092 41.12704769 18.515625 37.984375 C18.42796875 37.24703125 18.3403125 36.5096875 18.25 35.75 C17.53026105 32.06281275 16.67870607 30.30538798 13.875 27.8125 C10.32684335 24.64370601 8.01160762 21.04613295 5.6875 16.9375 C5.35024902 16.34751221 5.01299805 15.75752441 4.66552734 15.1496582 C1.86973289 10.09420067 0 5.81046079 0 0 Z " fill="#9E9C9E" transform="translate(48,102)"/>
<path d="M0 0 C2.06547922 3.09821883 3.56243611 6.18449352 5.125 9.5625 C5.66382813 10.71878906 6.20265625 11.87507813 6.7578125 13.06640625 C8 16 8 16 8 18 C8.78375 17.938125 9.5675 17.87625 10.375 17.8125 C11.674375 17.9053125 11.674375 17.9053125 13 18 C13.66 18.99 14.32 19.98 15 21 C15.825 21.495 16.65 21.99 17.5 22.5 C20 24 20 24 22 27 C23.94832935 28.00168531 23.94832935 28.00168531 26.125 28.6875 C26.84945312 28.93886719 27.57390625 29.19023437 28.3203125 29.44921875 C28.87460938 29.63097656 29.42890625 29.81273437 30 30 C30 30.66 30 31.32 30 32 C42.92027378 34.69740308 55.53059525 36.38921059 68.75 36.375 C69.88985352 36.37628906 71.02970703 36.37757813 72.20410156 36.37890625 C79.64319904 36.28328244 86.69857139 35.37663506 94 34 C96.33073339 33.6416547 98.66345137 33.31862027 101 33 C96.08141044 37.91858956 86.69811411 38.36810244 80 39 C89.8745104 39.57833358 99.06436869 38.21981913 107 32 C107.66 32.33 108.32 32.66 109 33 C102.72149546 40.28306527 93.08347597 41.57080984 84 43 C79.2041234 43.2414273 74.4798608 43.07373166 69.6875 42.8125 C68.42437988 42.75425049 67.16125977 42.69600098 65.85986328 42.63598633 C39.82871283 41.3329272 39.82871283 41.3329272 29.00390625 36.8046875 C26.05948502 35.62232732 25.08189565 35.97270145 22 37 C12.25783392 27.22536004 0 14.70721638 0 0 Z " fill="#BBBABE" transform="translate(48,102)"/>
<path d="M0 0 C-7.75400456 6.97860411 -15.40986672 9.55885735 -25.51171875 11.77734375 C-29.50076878 13.17552142 -31.18286997 14.91162604 -34 18 C-51.5440768 30.25815348 -80.01433353 27.79931414 -99.95288086 24.34692383 C-107.72451818 22.82312439 -114.16255056 20.47260885 -120 15 C-121.35439668 12.29120665 -121.06501451 9.99066732 -121 7 C-117.4213696 8.65167557 -114.25179812 10.78286492 -111 13 C-114 14 -114 14 -117 13 C-96.45281534 24.50096841 -72.62940691 23.36615499 -50 20 C-49.01 19.67 -48.02 19.34 -47 19 C-47.495 18.01 -47.495 18.01 -48 17 C-47.38253906 16.85304687 -46.76507813 16.70609375 -46.12890625 16.5546875 C-41.28797964 15.27261561 -37.49181241 13.85484799 -33.4375 10.875 C-29.61887931 8.14549296 -26.85626579 7.37752719 -22.21484375 7.1328125 C-18.59902167 6.91599072 -15.44958624 6.10879558 -12 5 C-11.67 4.01 -11.34 3.02 -11 2 C-9.2578125 1.015625 -9.2578125 1.015625 -7.125 0.25 C-6.07699219 -0.14445313 -6.07699219 -0.14445313 -5.0078125 -0.546875 C-3 -1 -3 -1 0 0 Z " fill="#CDCDCF" transform="translate(188,136)"/>
<path d="M0 0 C16.90760498 -0.3737702 30.85169651 4.72948716 44.12890625 15.12109375 C44.12890625 15.78109375 44.12890625 16.44109375 44.12890625 17.12109375 C45.02222656 17.51361328 45.02222656 17.51361328 45.93359375 17.9140625 C50.93045607 20.66144765 54.49119297 25.71663991 56.12890625 31.12109375 C57.77890625 31.12109375 59.42890625 31.12109375 61.12890625 31.12109375 C61.12890625 31.45109375 61.12890625 31.78109375 61.12890625 32.12109375 C59.58783203 32.17716797 59.58783203 32.17716797 58.015625 32.234375 C50.54587305 32.56688603 43.64410842 33.13992771 36.4609375 35.40234375 C34.03533951 36.14993174 31.62334344 36.66030961 29.12890625 37.12109375 C32.65437548 33.08714338 37.00126713 32.13257325 42.12890625 31.12109375 C45.81356554 30.89834357 49.4436871 30.93192851 53.12890625 31.12109375 C52.63390625 30.50234375 52.13890625 29.88359375 51.62890625 29.24609375 C50.12890625 27.12109375 50.12890625 27.12109375 50.12890625 25.12109375 C49.46890625 25.12109375 48.80890625 25.12109375 48.12890625 25.12109375 C48.08765625 24.52296875 48.04640625 23.92484375 48.00390625 23.30859375 C47.25150724 20.77008543 47.25150724 20.77008543 44.06640625 19.37109375 C43.09703125 18.95859375 42.12765625 18.54609375 41.12890625 18.12109375 C41.12890625 17.13109375 41.12890625 16.14109375 41.12890625 15.12109375 C40.44828125 15.03859375 39.76765625 14.95609375 39.06640625 14.87109375 C35.25421555 13.89776847 32.48820296 12.1630192 29.12890625 10.12109375 C29.12890625 9.46109375 29.12890625 8.80109375 29.12890625 8.12109375 C28.34515625 8.01796875 27.56140625 7.91484375 26.75390625 7.80859375 C23.85560573 7.25891607 21.42475243 6.55225092 18.66015625 5.6015625 C12.74026546 3.80721387 7.15286406 3.67648291 1.00390625 3.74609375 C-0.54490234 3.72869141 -0.54490234 3.72869141 -2.125 3.7109375 C-8.45634774 3.73513373 -13.06978276 4.61508526 -18.87109375 7.12109375 C-21.87109375 7.30859375 -21.87109375 7.30859375 -23.87109375 7.12109375 C-23.87109375 6.46109375 -23.87109375 5.80109375 -23.87109375 5.12109375 C-15.73859148 1.7969721 -8.71932321 0.36775377 0 0 Z " fill="#EBEBEE" transform="translate(106.87109375,24.87890625)"/>
<path d="M0 0 C3.5786304 1.65167557 6.74820188 3.78286492 10 6 C7 7 7 7 4 6 C13.88627679 11.53369033 23.75285108 14.06273759 35 15 C35 15.66 35 16.32 35 17 C46.22 16.67 57.44 16.34 69 16 C56.9501967 24.0332022 32.48240938 19.58275089 18.859375 16.91796875 C11.88853527 15.25992489 6.282312 12.9521675 1 8 C-0.35439668 5.29120665 -0.06501451 2.99066732 0 0 Z " fill="#ACACAC" transform="translate(67,143)"/>
<path d="M0 0 C2.06547922 3.09821883 3.56243611 6.18449352 5.125 9.5625 C5.66382813 10.71878906 6.20265625 11.87507813 6.7578125 13.06640625 C8 16 8 16 8 18 C8.78375 17.938125 9.5675 17.87625 10.375 17.8125 C11.674375 17.9053125 11.674375 17.9053125 13 18 C13.66 18.99 14.32 19.98 15 21 C15.825 21.495 16.65 21.99 17.5 22.5 C20 24 20 24 22 27 C23.94832935 28.00168531 23.94832935 28.00168531 26.125 28.6875 C26.84945312 28.93886719 27.57390625 29.19023437 28.3203125 29.44921875 C28.87460938 29.63097656 29.42890625 29.81273437 30 30 C30 30.66 30 31.32 30 32 C30.66 32.33 31.32 32.66 32 33 C29.33333333 32.33333333 26.66666667 31.66666667 24 31 C29.28830549 33.15294651 34.55123997 35.27933894 40 37 C39.505 37.99 39.505 37.99 39 39 C33.33895411 38.50341703 29.12325529 37.45489316 24 35 C24.33 35.66 24.66 36.32 25 37 C20.71327711 36.54929315 18.48987289 33.84975696 15.75 30.8125 C15.27054932 30.2851123 14.79109863 29.75772461 14.29711914 29.21435547 C7.37730241 21.32016028 0 10.75369851 0 0 Z " fill="#BFBEC0" transform="translate(48,102)"/>
<path d="M0 0 C5.875 1.875 5.875 1.875 7 3 C20.03232906 6.18964026 33.43193161 7.38130267 46.8125 7.375 C47.94856689 7.37636963 49.08463379 7.37773926 50.25512695 7.37915039 C57.67628655 7.28275755 64.71597332 6.3721828 72 5 C74.33073747 4.64169223 76.66345306 4.31862004 79 4 C76.62860769 6.37139231 75.09077776 6.70704937 71.875 7.5625 C70.96492188 7.81128906 70.05484375 8.06007812 69.1171875 8.31640625 C60.33182188 10.24302152 51.51810432 10.28114356 42.5625 10.3125 C41.84956787 10.31511841 41.13663574 10.31773682 40.40209961 10.32043457 C26.61993626 10.32586245 13.02834942 9.51771839 1 2 C0.67 1.34 0.34 0.68 0 0 Z " fill="#89898D" transform="translate(70,131)"/>
<path d="M0 0 C-11.2532441 4.76098789 -22.63980123 5.36335729 -34.75 5.3125 C-36.06516602 5.30976074 -37.38033203 5.30702148 -38.73535156 5.30419922 C-62.95614287 5.04385713 -62.95614287 5.04385713 -68 0 C-67.02804688 0.15339844 -66.05609375 0.30679688 -65.0546875 0.46484375 C-52.85698189 2.19646595 -40.2950214 2.11621806 -28 2.25 C-26.48043701 2.28202515 -26.48043701 2.28202515 -24.93017578 2.31469727 C-18.43412429 2.34384418 -12.82054232 1.41826085 -6.59375 -0.45019531 C-3.93724853 -1.01330161 -2.52681026 -0.89838832 0 0 Z " fill="#868487" transform="translate(148,149)"/>
<path d="M0 0 C0.59498291 0.15146484 1.18996582 0.30292969 1.80297852 0.45898438 C23.54746232 5.81730661 44.7511983 6.41722465 67 4 C54.12060176 12.58626549 27.88880627 9.13065676 13.37402344 6.35546875 C8.42182019 5.27662266 4.30046671 3.65347946 0 1 C0 0.67 0 0.34 0 0 Z " fill="#7E7D7F" transform="translate(74,142)"/>
<path d="M0 0 C1.216875 0.144375 2.43375 0.28875 3.6875 0.4375 C5.45793222 0.62875039 7.22880836 0.81591548 9 1 C9.8971875 1.09539062 10.794375 1.19078125 11.71875 1.2890625 C19.8116566 2.03446179 27.83518428 2.07122585 35.95776367 1.96313477 C42.03948249 1.90561018 47.96193812 2.26920121 54 3 C54 3.33 54 3.66 54 4 C47.69520207 5.19430357 41.52746474 5.22201807 35.12670898 5.24023438 C33.09901069 5.24982727 31.07237816 5.28084804 29.04492188 5.3125 C19.77392237 5.38752429 10.93956466 4.58735451 2 2 C1.34 1.34 0.68 0.68 0 0 Z " fill="#C4C2C4" transform="translate(82,143)"/>
<path d="M0 0 C3.5786304 1.65167557 6.74820188 3.78286492 10 6 C7 7 7 7 4 6 C10.50594543 9.50213658 16.84870304 12.12849037 24 14 C24 14.33 24 14.66 24 15 C16.90529301 16.54305684 12.25016207 15.67015331 6 12 C1.35483871 8.70967742 1.35483871 8.70967742 0 6 C-0.039992 4.00039988 -0.04346799 1.99952758 0 0 Z " fill="#C4C2C3" transform="translate(67,143)"/>
<path d="M0 0 C0.52464844 0.12117187 1.04929687 0.24234375 1.58984375 0.3671875 C18.22179819 3.96478164 35.04623135 4.49721192 52 5 C52 5.33 52 5.66 52 6 C35.87179902 8.6880335 17.20375874 8.09530419 2 2 C1.34 1.34 0.68 0.68 0 0 Z " fill="#6C6A6D" transform="translate(76,139)"/>
<path d="M0 0 C-7.84647477 7.06182729 -16.37904567 11.19305473 -27.046875 11.265625 C-29 11 -29 11 -31 9 C-28.80228469 7.90114234 -27.31086631 7.77043981 -24.875 7.5625 C-20.40098802 7.0919324 -16.2910613 6.3792697 -12 5 C-11.67 4.01 -11.34 3.02 -11 2 C-9.2578125 1.015625 -9.2578125 1.015625 -7.125 0.25 C-6.42632812 -0.01296875 -5.72765625 -0.2759375 -5.0078125 -0.546875 C-3 -1 -3 -1 0 0 Z " fill="#BCBCBE" transform="translate(188,136)"/>
<path d="M0 0 C-3.26657405 1.94185826 -5.6962408 2.24669293 -9.47265625 2.23046875 C-10.53806641 2.22853516 -11.60347656 2.22660156 -12.70117188 2.22460938 C-13.81041016 2.21236328 -14.91964844 2.20011719 -16.0625 2.1875 C-17.14466797 2.18685547 -18.22683594 2.18621094 -19.34179688 2.18554688 C-26.27639002 2.14810756 -33.10647082 1.74946539 -40 1 C-40 0.67 -40 0.34 -40 0 C-35.47924188 -0.16874864 -30.95838284 -0.3346291 -26.4375 -0.5 C-25.16068359 -0.54769531 -23.88386719 -0.59539062 -22.56835938 -0.64453125 C-20.70727539 -0.71220703 -20.70727539 -0.71220703 -18.80859375 -0.78125 C-17.67220459 -0.82314453 -16.53581543 -0.86503906 -15.36499023 -0.90820312 C-4.92153874 -1.1931003 -4.92153874 -1.1931003 0 0 Z " fill="#CCCACD" transform="translate(136,150)"/>
<path d="M0 0 C4.29 1.65 8.58 3.3 13 5 C12.67 5.66 12.34 6.32 12 7 C15.3 7.99 18.6 8.98 22 10 C22 10.33 22 10.66 22 11 C3.73477898 9.84320267 3.73477898 9.84320267 0 5.875 C-0.33 5.25625 -0.66 4.6375 -1 4 C1.31 4.66 3.62 5.32 6 6 C5.01 5.38125 4.02 4.7625 3 4.125 C2.01 3.42375 1.02 2.7225 0 2 C0 1.34 0 0.68 0 0 Z " fill="#B7B5B6" transform="translate(70,143)"/>
<path d="M0 0 C1.55776995 2.33665492 2.61811019 4.26016058 3.69921875 6.80078125 C4.02212891 7.53103516 4.34503906 8.26128906 4.67773438 9.01367188 C5.34345866 10.52925694 5.99741996 12.05007133 6.63867188 13.57617188 C8.83161857 18.46416851 11.15904328 21.46803981 15.47998047 24.66333008 C17.80164132 26.70494479 18.36804602 29.05088142 19 32 C9.56495562 24.68302681 3.62356181 15.38833711 0 4 C0 2.68 0 1.36 0 0 Z " fill="#ACABAD" transform="translate(48,102)"/>
<path d="M0 0 C0.66 0.33 1.32 0.66 2 1 C-4.2404935 8.23897246 -13.93433614 9.67814086 -23 11 C-25.86128304 10.96251594 -28.19461251 10.61718525 -31 10 C-31 9.67 -31 9.34 -31 9 C-30.11699219 8.89042969 -29.23398438 8.78085938 -28.32421875 8.66796875 C-13.22929782 6.87631085 -13.22929782 6.87631085 0 0 Z " fill="#A6A5AA" transform="translate(155,134)"/>
<path d="M0 0 C0.66 0.33 1.32 0.66 2 1 C-5.82226097 6.6711392 -12.30761154 8.5362592 -22 8 C-18.90817394 5.93878263 -16.83479495 5.36771409 -13.25 4.5625 C-9.62305973 3.70626107 -6.25977161 2.81385017 -2.875 1.25 C-1.92625 0.8375 -0.9775 0.425 0 0 Z " fill="#DDDDE0" transform="translate(153,142)"/>
<path d="M0 0 C-3.65004367 3.65004367 -8.45647687 3.94355115 -13.41796875 4.125 C-16.61447359 4.125 -19.80478159 4.08767368 -23 4 C-19.46332072 1.64221381 -16.15994448 1.05715643 -12.0625 0.3125 C-11.34642578 0.17005859 -10.63035156 0.02761719 -9.89257812 -0.11914062 C-3.41023091 -1.32669557 -3.41023091 -1.32669557 0 0 Z " fill="#DCDBE1" transform="translate(148,138)"/>
<path d="M0 0 C4.49295211 4.69717721 5.11389688 11.31144393 5.125 17.5625 C5.08375 18.696875 5.0425 19.83125 5 21 C4.34 21 3.68 21 3 21 C2.79503906 19.89140625 2.59007812 18.7828125 2.37890625 17.640625 C2.10683538 16.17707133 1.83469638 14.71353033 1.5625 13.25 C1.42779297 12.52039063 1.29308594 11.79078125 1.15429688 11.0390625 C0.39351852 6.90193224 0.39351852 6.90193224 -0.60961914 2.81933594 C-0.73844482 2.21895508 -0.86727051 1.61857422 -1 1 C-0.67 0.67 -0.34 0.34 0 0 Z " fill="#EBEAED" transform="translate(199,83)"/>
<path d="M0 0 C0.99 0.33 1.98 0.66 3 1 C3 1.66 3 2.32 3 3 C3.66 3 4.32 3 5 3 C6.625 4.375 6.625 4.375 8 6 C8 6.66 8 7.32 8 8 C8.66 8 9.32 8 10 8 C10.69965443 9.26418246 11.38434763 10.53665402 12.0625 11.8125 C12.44535156 12.52019531 12.82820312 13.22789063 13.22265625 13.95703125 C14 16 14 16 13 19 C12.74605469 18.43410156 12.49210938 17.86820313 12.23046875 17.28515625 C11.88628906 16.55167969 11.54210937 15.81820312 11.1875 15.0625 C10.85105469 14.33160156 10.51460937 13.60070312 10.16796875 12.84765625 C9.06399866 10.66970511 9.06399866 10.66970511 6 10 C4.63823419 8.01924973 3.30406884 6.01920337 2 4 C1.34 3.67 0.68 3.34 0 3 C0 2.01 0 1.02 0 0 Z " fill="#EBEAEE" transform="translate(184,64)"/>
<path d="M0 0 C-7.95167745 4.35449003 -15.13334104 4.1291261 -24 4 C-24 3.67 -24 3.34 -24 3 C-20.75290806 2.29825244 -17.50199748 1.61611931 -14.25 0.9375 C-13.32960937 0.73833984 -12.40921875 0.53917969 -11.4609375 0.33398438 C-10.57148438 0.15029297 -9.68203125 -0.03339844 -8.765625 -0.22265625 C-7.94868164 -0.39547119 -7.13173828 -0.56828613 -6.29003906 -0.74633789 C-3.89799506 -1.01129884 -2.27474929 -0.73312703 0 0 Z " fill="#E0DFE3" transform="translate(150,142)"/>
<path d="M0 0 C0.52464844 0.12117187 1.04929687 0.24234375 1.58984375 0.3671875 C9.98591371 2.18330912 18.47052786 3.06987195 27 4 C27 4.33 27 4.66 27 5 C17.87252391 6.51302306 10.55377599 5.61301284 2 2 C1.34 1.34 0.68 0.68 0 0 Z " fill="#7D7D7F" transform="translate(76,139)"/>
<path d="M0 0 C2.31 0.66 4.62 1.32 7 2 C7 2.66 7 3.32 7 4 C9.31 4.66 11.62 5.32 14 6 C10.68735796 8.20842803 10.16548604 8.19725756 6.4375 7.6875 C5.65246094 7.58824219 4.86742188 7.48898438 4.05859375 7.38671875 C2 7 2 7 0 6 C0 5.34 0 4.68 0 4 C1.32 4.33 2.64 4.66 4 5 C4 4.34 4 3.68 4 3 C2.68 2.34 1.36 1.68 0 1 C0 0.67 0 0.34 0 0 Z " fill="#A6A5A8" transform="translate(71,136)"/>
<path d="M0 0 C2.4375 0.375 2.4375 0.375 5 1 C5.33 1.66 5.66 2.32 6 3 C8.01669827 4.13350534 8.01669827 4.13350534 10 5 C9.67 6.65 9.34 8.3 9 10 C7.86800647 9.0919838 6.74467637 8.17316174 5.625 7.25 C4.99851562 6.73953125 4.37203125 6.2290625 3.7265625 5.703125 C1.91687682 3.91800519 0.99882545 2.32050356 0 0 Z " fill="#C9C9CB" transform="translate(57,120)"/>
<path d="M0 0 C0 0.66 0 1.32 0 2 C-8.42857143 5.42857143 -8.42857143 5.42857143 -13 5 C-13 4.34 -13 3.68 -13 3 C-4.57142857 -0.42857143 -4.57142857 -0.42857143 0 0 Z " fill="#E7E7E8" transform="translate(96,27)"/>
<path d="M0 0 C0.33 0 0.66 0 1 0 C1.02685938 2.14576637 1.04633088 4.29162645 1.0625 6.4375 C1.07410156 7.63246094 1.08570312 8.82742187 1.09765625 10.05859375 C1 13 1 13 0 14 C-1.85287502 14.07226502 -3.70833878 14.0838122 -5.5625 14.0625 C-6.57441406 14.05347656 -7.58632812 14.04445313 -8.62890625 14.03515625 C-9.41136719 14.02355469 -10.19382812 14.01195313 -11 14 C-11 13.34 -11 12.68 -11 12 C-8.03 12.33 -5.06 12.66 -2 13 C-1.34 8.71 -0.68 4.42 0 0 Z " fill="#C7C6CB" transform="translate(111,96)"/>
<path d="M0 0 C0 0.66 0 1.32 0 2 C0.99 2.33 1.98 2.66 3 3 C0.89521396 2.88590318 -1.20884577 2.75834639 -3.3125 2.625 C-4.48425781 2.55539063 -5.65601562 2.48578125 -6.86328125 2.4140625 C-10 2 -10 2 -13 0 C-8.38926889 -1.29676812 -4.66159911 -0.71109139 0 0 Z " fill="#B0B0B2" transform="translate(96,140)"/>
<path d="M0 0 C4.16138263 -0.08159574 7.9472484 0.01751476 12 1 C8.29583874 3.37590142 5.07015427 3.20500286 0.75 3.125 C-0.51328125 3.10695312 -1.7765625 3.08890625 -3.078125 3.0703125 C-4.04234375 3.04710937 -5.0065625 3.02390625 -6 3 C-6 2.67 -6 2.34 -6 2 C-4.02 1.67 -2.04 1.34 0 1 C0 0.67 0 0.34 0 0 Z " fill="#C3C2C4" transform="translate(124,149)"/>
<path d="M0 0 C4.29 1.65 8.58 3.3 13 5 C12.01 5.66 11.02 6.32 10 7 C6.06406814 6.07882446 2.98289255 4.75343928 0 2 C0 1.34 0 0.68 0 0 Z " fill="#979596" transform="translate(70,143)"/>
<path d="M0 0 C-2.51830747 3.12270126 -3.7261549 3.94523098 -7.75 4.75 C-9.35875 4.87375 -9.35875 4.87375 -11 5 C-11 4.01 -11 3.02 -11 2 C-9.73392393 1.46770674 -8.46189588 0.94955456 -7.1875 0.4375 C-6.47980469 0.14746094 -5.77210938 -0.14257812 -5.04296875 -0.44140625 C-3 -1 -3 -1 0 0 Z " fill="#CACACC" transform="translate(188,136)"/>
<path d="M0 0 C-3.122002 2.08133467 -3.93266989 2.2737822 -7.5 2.25 C-8.66015625 2.25773438 -8.66015625 2.25773438 -9.84375 2.265625 C-12 2 -12 2 -15 0 C-9.96266834 -1.5111995 -5.11828973 -0.64599773 0 0 Z " fill="#AFADAF" transform="translate(99,149)"/>
<path d="M0 0 C0.33 0 0.66 0 1 0 C1.06058594 0.97582031 1.12117188 1.95164062 1.18359375 2.95703125 C1.26738281 4.22933594 1.35117187 5.50164062 1.4375 6.8125 C1.51871094 8.07707031 1.59992187 9.34164062 1.68359375 10.64453125 C1.87184547 13.99181893 1.87184547 13.99181893 3 17 C2.0625 19.1875 2.0625 19.1875 1 21 C0.07811539 18.23434618 -0.11785222 16.61716298 -0.09765625 13.76953125 C-0.09282227 12.56586914 -0.09282227 12.56586914 -0.08789062 11.33789062 C-0.07951172 10.50451172 -0.07113281 9.67113281 -0.0625 8.8125 C-0.05798828 7.96751953 -0.05347656 7.12253906 -0.04882812 6.25195312 C-0.03705403 4.16793845 -0.0191189 2.08396023 0 0 Z " fill="#C5C5C5" transform="translate(46,80)"/>
<path d="M0 0 C0.66 0 1.32 0 2 0 C2 0.66 2 1.32 2 2 C2.598125 1.79375 3.19625 1.5875 3.8125 1.375 C6 1 6 1 9 3 C8.34 3.66 7.68 4.32 7 5 C4.17042171 4.63723355 1.70915709 3.90305236 -1 3 C-0.67 2.01 -0.34 1.02 0 0 Z " fill="#E5E3E6" transform="translate(74,128)"/>
<path d="M0 0 C0.66 0 1.32 0 2 0 C0.9441902 2.78349856 -0.00518252 4.00409146 -2.375 5.875 C-3.674375 6.431875 -3.674375 6.431875 -5 7 C-7.1640625 6.0703125 -7.1640625 6.0703125 -9 5 C-8.43410156 4.72285156 -7.86820313 4.44570312 -7.28515625 4.16015625 C-6.55167969 3.79792969 -5.81820312 3.43570313 -5.0625 3.0625 C-3.96615234 2.52302734 -3.96615234 2.52302734 -2.84765625 1.97265625 C-1.03750973 1.13628173 -1.03750973 1.13628173 0 0 Z " fill="#C0BFC2" transform="translate(155,142)"/>
<path d="M0 0 C1.67542976 0.28604898 3.34385343 0.61781233 5 1 C1.25474201 4.74525799 -2.98270909 4.68909949 -8 5 C-7 3 -7 3 -4 1.9375 C-2.515 1.4734375 -2.515 1.4734375 -1 1 C-0.67 0.67 -0.34 0.34 0 0 Z " fill="#E7E6EC" transform="translate(146,131)"/>
<path d="M0 0 C4.47238653 1.41807378 8.71146306 3.11304374 13 5 C9.86846113 6.3778771 8.71220527 5.90076044 5.375 4.75 C2 3 2 3 0 0 Z " fill="#AAA8A9" transform="translate(71,152)"/>
<path d="M0 0 C1.58294782 -0.05437607 3.16644256 -0.09296271 4.75 -0.125 C5.63171875 -0.14820312 6.5134375 -0.17140625 7.421875 -0.1953125 C10.1135858 0.00860498 11.69904974 0.63448279 14 2 C12.02 2.33 10.04 2.66 8 3 C8 2.34 8 1.68 8 1 C7.236875 1.20625 6.47375 1.4125 5.6875 1.625 C3 2 3 2 0 0 Z " fill="#EAE9EF" transform="translate(112,109)"/>
<path d="M0 0 C-1.62339805 1.70884005 -3.29319053 3.37446717 -5 5 C-5.66 5 -6.32 5 -7 5 C-7 4.34 -7 3.68 -7 3 C-7.99 2.67 -8.98 2.34 -10 2 C-8.71211992 1.46987262 -7.41953322 0.9511671 -6.125 0.4375 C-5.40570313 0.14746094 -4.68640625 -0.14257812 -3.9453125 -0.44140625 C-2 -1 -2 -1 0 0 Z " fill="#D6D6D8" transform="translate(154,152)"/>
<path d="M0 0 C0.66 0.33 1.32 0.66 2 1 C-0.31 2.65 -2.62 4.3 -5 6 C-5.99 5.34 -6.98 4.68 -8 4 C-6.71349294 3.30289269 -5.42059335 2.61757124 -4.125 1.9375 C-3.40570313 1.55464844 -2.68640625 1.17179688 -1.9453125 0.77734375 C-1.30335938 0.52082031 -0.66140625 0.26429688 0 0 Z " fill="#BFBEC4" transform="translate(155,130)"/>
</svg>
